<svg width="20" height="20" viewBox="0 0 20 20" fill="none" xmlns="http://www.w3.org/2000/svg">
<path fill-rule="evenodd" clip-rule="evenodd" d="M9.99994 -0.00146484C4.4862 -0.00146484 0 4.48457 0 9.99854C0 15.513 4.4862 19.9991 9.99994 19.9991C15.5138 19.9991 20 15.513 20 9.99854C20 4.48457 15.5138 -0.00146484 9.99994 -0.00146484ZM14.8076 10.7684H10.7692V14.9985C10.7692 15.4233 10.4246 15.7674 9.99994 15.7674C9.57538 15.7674 9.2308 15.4233 9.2308 14.9985V10.7684H5.1923C4.76772 10.7684 4.42301 10.4233 4.42301 9.99854C4.42301 9.5738 4.76772 9.22917 5.1923 9.22917H9.2308V5.38348C9.2308 4.95821 9.57538 4.61466 9.99994 4.61466C10.4246 4.61466 10.7692 4.95821 10.7692 5.38348V9.22917H14.8076C15.2323 9.22917 15.5769 9.5738 15.5769 9.99854C15.5769 10.4233 15.2323 10.7684 14.8076 10.7684Z" fill="#3FDBB1"/>
</svg>
