<svg width="20" height="20" viewBox="0 0 20 20" fill="none" xmlns="http://www.w3.org/2000/svg">
<path fill-rule="evenodd" clip-rule="evenodd" d="M9.99994 -0.00195312C4.4862 -0.00195312 0 4.48408 0 9.99806C0 15.5126 4.4862 19.998 9.99994 19.998C15.5138 19.998 20 15.5126 20 9.99806C20 4.48408 15.5138 -0.00195312 9.99994 -0.00195312ZM14.8076 10.7679H10.7692V14.9986C10.7692 15.4228 10.4246 15.7674 9.99994 15.7674C9.57538 15.7674 9.2308 15.4228 9.2308 14.9986V10.7679H5.1923C4.76772 10.7679 4.42301 10.4233 4.42301 9.99806C4.42301 9.57384 4.76772 9.22923 5.1923 9.22923H9.2308V5.38299C9.2308 4.9588 9.57538 4.61417 9.99994 4.61417C10.4246 4.61417 10.7692 4.9588 10.7692 5.38299V9.22923H14.8076C15.2323 9.22923 15.5769 9.57384 15.5769 9.99806C15.5769 10.4233 15.2323 10.7679 14.8076 10.7679Z" fill="#3FDBB1"/>
</svg>
